<svg xmlns="http://www.w3.org/2000/svg" width="126" height="54" fill="none" xmlns:v="https://vecta.io/nano"><path d="M10.377 15.585c2.363 0 4.428.468 6.194 1.405s3.129 2.256 4.087 3.959c.979 1.682 1.469 3.629 1.469 5.843 0 2.193-.49 4.14-1.469 5.843-.958 1.703-2.331 3.023-4.119 3.959-1.767.937-3.821 1.405-6.162 1.405H1.98V15.585h8.398zm-.351 17.689c2.065 0 3.672-.564 4.821-1.692s1.724-2.725 1.724-4.789-.575-3.672-1.724-4.821-2.757-1.724-4.821-1.724H7.44v13.027h2.586zm14.067-4.215c0-1.831.341-3.438 1.022-4.821.702-1.384 1.65-2.448 2.842-3.193s2.522-1.118 3.991-1.118c1.256 0 2.352.256 3.289.766.958.511 1.692 1.181 2.203 2.012v-2.523h5.46V38h-5.46v-2.523c-.532.83-1.277 1.501-2.235 2.012-.937.511-2.033.766-3.289.766a7.32 7.32 0 0 1-3.959-1.117c-1.192-.766-2.139-1.841-2.842-3.225-.681-1.405-1.022-3.023-1.022-4.853zm13.347.032c0-1.362-.383-2.437-1.15-3.225a3.63 3.63 0 0 0-2.746-1.181 3.73 3.73 0 0 0-2.778 1.181c-.745.766-1.118 1.831-1.118 3.193s.373 2.448 1.118 3.257a3.73 3.73 0 0 0 2.778 1.181 3.63 3.63 0 0 0 2.746-1.181c.766-.788 1.15-1.863 1.15-3.225zm20.266-9.1c2.086 0 3.747.681 4.981 2.044 1.256 1.341 1.884 3.193 1.884 5.556V38h-5.428v-9.675c0-1.192-.309-2.118-.926-2.778s-1.447-.99-2.491-.99-1.873.33-2.49.99-.926 1.586-.926 2.778V38h-5.46V20.183h5.46v2.363c.553-.788 1.299-1.405 2.235-1.852.937-.468 1.99-.703 3.161-.703zm9.574 9.068c0-1.831.34-3.438 1.022-4.821.703-1.384 1.65-2.448 2.842-3.193s2.522-1.118 3.991-1.118c1.256 0 2.352.256 3.289.766.958.511 1.692 1.181 2.203 2.012v-2.523h5.46V38h-5.46v-2.523c-.532.83-1.277 1.501-2.235 2.012-.937.511-2.033.766-3.289.766a7.32 7.32 0 0 1-3.959-1.117c-1.192-.766-2.139-1.841-2.842-3.225-.681-1.405-1.022-3.023-1.022-4.853zm13.347.032c0-1.362-.383-2.437-1.15-3.225a3.63 3.63 0 0 0-2.746-1.181 3.73 3.73 0 0 0-2.778 1.181c-.745.766-1.118 1.831-1.118 3.193s.373 2.448 1.118 3.257a3.73 3.73 0 0 0 2.778 1.181 3.63 3.63 0 0 0 2.746-1.181c.766-.788 1.15-1.863 1.15-3.225zm20.266-9.1c2.086 0 3.747.681 4.981 2.044 1.256 1.341 1.884 3.193 1.884 5.556V38h-5.428v-9.675c0-1.192-.309-2.118-.926-2.778s-1.447-.99-2.49-.99-1.873.33-2.491.99-.926 1.586-.926 2.778V38h-5.46V20.183h5.46v2.363c.553-.788 1.298-1.405 2.235-1.852.937-.468 1.99-.703 3.161-.703zm15.768 13.506h7.727V38h-13.825v-4.343l7.407-8.972h-7.344v-4.502h13.603v4.343l-7.568 8.972z" fill="#000"/><path d="M55.615 29v12.5H99V29" stroke="#000" stroke-width="2" stroke-linecap="round"/></svg>